<svg width="32" height="32" viewBox="0 0 32 32" xmlns="http://www.w3.org/2000/svg">
  <defs>
    <linearGradient id="waterGrad" x1="0%" y1="0%" x2="0%" y2="100%">
      <stop offset="0%" style="stop-color:#326ce5;stop-opacity:0.8"/>
      <stop offset="100%" style="stop-color:#1a4d8c;stop-opacity:1"/>
    </linearGradient>

    <linearGradient id="shipGrad" x1="0%" y1="0%" x2="100%" y2="0%">
      <stop offset="0%" style="stop-color:#ff6b35;stop-opacity:1"/>
      <stop offset="100%" style="stop-color:#ff8c42;stop-opacity:1"/>
    </linearGradient>

    <linearGradient id="k8sGrad" x1="0%" y1="0%" x2="100%" y2="100%">
      <stop offset="0%" style="stop-color:#326ce5;stop-opacity:1"/>
      <stop offset="100%" style="stop-color:#1a4d8c;stop-opacity:1"/>
    </linearGradient>
  </defs>

  <!-- Background -->
  <rect width="32" height="32" fill="#f8f9fa" rx="4"/>

  <!-- Dry dock -->
  <rect x="4" y="20" width="24" height="8" fill="url(#waterGrad)" rx="1"/>

  <!-- Dock walls -->
  <rect x="4" y="18" width="2" height="12" fill="#2c3e50"/>
  <rect x="26" y="18" width="2" height="12" fill="#2c3e50"/>

  <!-- Ship platform -->
  <path d="M 6 20 L 26 20 L 25 26 L 7 26 Z" fill="url(#shipGrad)"/>

  <!-- Containers -->
  <rect x="8" y="16" width="3" height="4" fill="#00b894"/>
  <rect x="12" y="16" width="3" height="4" fill="#0984e3"/>
  <rect x="16" y="16" width="3" height="4" fill="#6c5ce7"/>

  <!-- Control tower -->
  <rect x="20" y="12" width="4" height="8" fill="#2d3436"/>
  <circle cx="22" cy="15" r="1" fill="#00b894"/>

  <!-- Kubernetes symbol -->
  <g transform="translate(22, 8)">
    <circle r="2.5" fill="none" stroke="url(#k8sGrad)" stroke-width="0.8"/>
    <g fill="url(#k8sGrad)">
      <circle r="0.5"/>
      <rect x="-0.2" y="-1.8" width="0.4" height="1"/>
      <rect x="-0.2" y="0.8" width="0.4" height="1"/>
      <rect x="0.8" y="-1.2" width="1" height="0.4" transform="rotate(60)"/>
      <rect x="0.8" y="-1.2" width="1" height="0.4" transform="rotate(-60)"/>
      <rect x="0.8" y="-1.2" width="1" height="0.4" transform="rotate(120)"/>
      <rect x="0.8" y="-1.2" width="1" height="0.4" transform="rotate(-120)"/>
    </g>
  </g>
</svg>
